<svg height="512pt" viewBox="0 0 512 512" width="512pt" xmlns="http://www.w3.org/2000/svg"><path d="m512 256c0 141.386719-114.613281 256-256 256s-256-114.613281-256-256 114.613281-256 256-256 256 114.613281 256 256zm0 0" fill="#cc1564"/><path d="m256 0v512c141.386719 0 256-114.613281 256-256s-114.613281-256-256-256zm0 0" fill="#ac1354"/><g fill="#fc5b94"><path d="m290.753906 172.503906c-24.707031-61.007812-64.085937-115.863281-115.773437-159.476562-37.269531 12.386718-71.417969 33.371094-100 61.953125-15.472657 15.46875-28.707031 32.578125-39.570313 50.925781 60.207032 33.15625 128.304688 50.652344 197.503906 50.652344 19.5 0 38.8125-1.375 57.839844-4.054688zm0 0"/><path d="m196.832031 321.292969c39.003907-17.640625 79.816407-29.328125 121.894531-34.964844-2.839843-29.082031-8.757812-57.566406-17.546874-85.023437-22.414063 3.480468-45.21875 5.253906-68.265626 5.253906-73.976562 0-146.792968-18.644532-211.242187-53.976563-14.203125 32.15625-21.671875 67.210938-21.671875 103.417969 0 60.378906 20.773438 117.5625 58.921875 163.40625 39.425781-41.550781 85.773437-74.535156 137.910156-98.113281zm0 0"/><path d="m320.894531 167.105469c50.726563-11.070313 98.902344-31.753907 142.402344-61.386719-7.875-10.8125-16.636719-21.097656-26.277344-30.738281-48.351562-48.351563-112.640625-74.980469-181.019531-74.980469-15.554688 0-30.890625 1.394531-45.882812 4.089844 49.3125 45.785156 86.925781 101.597656 110.777343 163.015625zm0 0"/><path d="m348.582031 283.363281c9.714844-.632812 19.488281-.953125 29.3125-.953125 44.351563 0 88.042969 6.574219 130.003907 19.539063 2.703124-15.011719 4.101562-30.375 4.101562-45.949219 0-44.496094-11.285156-87.253906-32.484375-125.023438-45.511719 30.882813-95.769531 52.640626-148.664063 64.648438 8.828126 28.382812 14.800782 57.761719 17.730469 87.738281zm0 0"/><path d="m320.554688 316.367188c-38.433594 5.355468-75.714844 16.136718-111.359376 32.261718-49.128906 22.214844-92.742187 53.402344-129.753906 92.742188 47.8125 45.59375 110.261719 70.628906 176.558594 70.628906 6.972656 0 13.898438-.292969 20.773438-.839844 29.132812-57.570312 43.910156-119.714844 43.910156-184.75 0-3.351562-.046875-6.699218-.128906-10.042968zm0 0"/><path d="m350.484375 313.304688c.128906 4.359374.199219 8.726562.199219 13.105468 0 62.714844-12.816406 122.9375-38.113282 179.355469 46.777344-10.5 89.722657-34.019531 124.449219-68.746094 30.066407-30.066406 51.726563-66.296875 63.8125-105.835937-39.636719-12.449219-80.960937-18.773438-122.9375-18.773438-9.1875 0-18.328125.300782-27.410156.894532zm0 0"/></g><path d="m256 105.351562v70.554688c11.675781-.652344 23.265625-1.785156 34.753906-3.398438-9.472656-23.386718-21.105468-45.863281-34.753906-67.15625zm0 0" fill="#fc3e81"/><path d="m301.179688 201.304688c-14.902344 2.3125-29.980469 3.855468-45.179688 4.640624v93.546876c20.539062-5.921876 41.472656-10.316407 62.726562-13.164063-2.839843-29.082031-8.757812-57.566406-17.546874-85.023437zm0 0" fill="#fc3e81"/><path d="m463.296875 105.71875c-7.875-10.8125-16.636719-21.097656-26.277344-30.738281-48.351562-48.351563-112.640625-74.980469-181.019531-74.980469v53.753906c27.265625 34.472656 49.097656 72.679688 64.894531 113.351563 50.726563-11.070313 98.902344-31.753907 142.402344-61.386719zm0 0" fill="#fc3e81"/><path d="m479.515625 130.976562c-45.511719 30.882813-95.769531 52.640626-148.664063 64.648438 8.828126 28.382812 14.800782 57.761719 17.730469 87.738281 9.714844-.632812 19.484375-.953125 29.3125-.953125 44.351563 0 88.042969 6.570313 130.003907 19.535156 2.703124-15.007812 4.101562-30.371093 4.101562-45.945312 0-44.496094-11.285156-87.253906-32.484375-125.023438zm0 0" fill="#fc3e81"/><path d="m320.554688 316.367188c-21.921876 3.054687-43.46875 7.882812-64.554688 14.453124v181.179688c6.972656 0 13.898438-.292969 20.773438-.839844 29.132812-57.570312 43.910156-119.714844 43.910156-184.75 0-3.351562-.046875-6.699218-.128906-10.042968zm0 0" fill="#fc3e81"/><path d="m350.484375 313.304688c.128906 4.359374.199219 8.726562.199219 13.105468 0 62.714844-12.816406 122.9375-38.113282 179.355469 46.777344-10.5 89.722657-34.019531 124.449219-68.746094 30.066407-30.066406 51.726563-66.296875 63.8125-105.835937-39.636719-12.449219-80.960937-18.773438-122.9375-18.773438-9.1875 0-18.328125.300782-27.410156.894532zm0 0" fill="#fc3e81"/></svg>