<svg xmlns="http://www.w3.org/2000/svg" viewBox="0 0 706.33 277.5"><defs><style>.cls-1{fill:#053450;}.cls-2{fill:#fff;}.cls-3{fill:#e3a837;}.cls-4{fill:#231815;}</style></defs><title>IKAKU</title><g id="圖層_1" data-name="圖層 1"><g id="_群組_" data-name="&lt;群組&gt;"><path id="_路徑_" data-name="&lt;路徑&gt;" class="cls-1" d="M133.53,274.64c-5.45,3.15-14.36,3.15-19.8,0L10.8,215.22C5.36,212.08.91,204.36.91,198.07V79.23c0-6.29,4.45-14,9.89-17.15L113.73,2.66c5.44-3.14,14.35-3.14,19.8,0L236.45,62.08c5.44,3.15,9.9,10.86,9.9,17.15V198.07c0,6.29-4.46,14-9.9,17.15Z"/><path id="_路徑_2" data-name="&lt;路徑&gt;" class="cls-2" d="M101.62,143.93c-.05-.42-.11-.83-.13-1.25C101.51,143.1,101.57,143.51,101.62,143.93Z"/><path id="_路徑_3" data-name="&lt;路徑&gt;" class="cls-2" d="M101.55,141.4c0-.43,0-.85.12-1.27C101.6,140.55,101.58,141,101.55,141.4Z"/><path id="_路徑_4" data-name="&lt;路徑&gt;" class="cls-2" d="M102.88,136.46c.2-.39.38-.78.61-1.16C103.26,135.68,103.08,136.07,102.88,136.46Z"/><path id="_路徑_5" data-name="&lt;路徑&gt;" class="cls-2" d="M102,138.89a11.16,11.16,0,0,1,.37-1.25A11.16,11.16,0,0,0,102,138.89Z"/><path id="_路徑_6" data-name="&lt;路徑&gt;" class="cls-2" d="M102.17,146.43c-.13-.41-.27-.81-.36-1.22C101.9,145.63,102,146,102.17,146.43Z"/><path id="_路徑_7" data-name="&lt;路徑&gt;" class="cls-2" d="M104.75,151c-.3-.35-.61-.7-.87-1.07C104.14,150.3,104.45,150.64,104.75,151Z"/><path id="_路徑_8" data-name="&lt;路徑&gt;" class="cls-2" d="M103.22,148.82c-.22-.39-.44-.77-.62-1.17C102.78,148.05,103,148.43,103.22,148.82Z"/><path id="_路徑_9" data-name="&lt;路徑&gt;" class="cls-2" d="M101.67,140.13c.07-.42.19-.83.3-1.24C101.86,139.3,101.74,139.71,101.67,140.13Z"/><path id="_路徑_10" data-name="&lt;路徑&gt;" class="cls-2" d="M103.88,149.93c-.25-.36-.45-.74-.66-1.11C103.43,149.19,103.63,149.57,103.88,149.93Z"/><path id="_路徑_11" data-name="&lt;路徑&gt;" class="cls-2" d="M102.34,137.64c.15-.4.35-.79.54-1.18C102.69,136.85,102.49,137.24,102.34,137.64Z"/><path id="_路徑_12" data-name="&lt;路徑&gt;" class="cls-2" d="M101.81,145.21a11,11,0,0,1-.19-1.28A11,11,0,0,0,101.81,145.21Z"/><path id="_路徑_13" data-name="&lt;路徑&gt;" class="cls-2" d="M103.49,135.3c.24-.38.52-.73.8-1.09C104,134.57,103.73,134.92,103.49,135.3Z"/><path id="_路徑_14" data-name="&lt;路徑&gt;" class="cls-2" d="M102.6,147.65c-.17-.4-.3-.81-.43-1.22C102.3,146.84,102.43,147.25,102.6,147.65Z"/><path id="_路徑_15" data-name="&lt;路徑&gt;" class="cls-2" d="M101.49,142.68c0-.43,0-.85.06-1.28C101.52,141.83,101.48,142.25,101.49,142.68Z"/><path id="_路徑_16" data-name="&lt;路徑&gt;" class="cls-1" d="M127,135.62l43.3-48a4.53,4.53,0,0,0-6.73-6.08L119.83,130a13.28,13.28,0,0,1,4.38,2.9Z"/><path id="_路徑_17" data-name="&lt;路徑&gt;" class="cls-2" d="M182.14,190.59,133.2,141.83,127,135.62l-2.75-2.75a13.28,13.28,0,0,0-4.38-2.9l-8.4,9.31a5.25,5.25,0,0,0-.4.68,4.22,4.22,0,0,1,7-.85l3.06,3,6.24,6.21,48.63,48.46a4.54,4.54,0,1,1-6.41,6.42l-49.06-48.89a13.2,13.2,0,0,1-14.6-2.14,15.87,15.87,0,0,1-1.11-1.22c.22.25.4.53.64.77l57.92,57.72a13.34,13.34,0,0,0,18.83-18.9Z"/><path id="_路徑_18" data-name="&lt;路徑&gt;" class="cls-1" d="M110.45,143.27a4.89,4.89,0,0,1-.17-.83A4.7,4.7,0,0,0,110.45,143.27Z"/><path id="_路徑_19" data-name="&lt;路徑&gt;" class="cls-1" d="M110.41,141.57a4.68,4.68,0,0,1,.16-.83A4.68,4.68,0,0,0,110.41,141.57Z"/><path id="_路徑_20" data-name="&lt;路徑&gt;" class="cls-1" d="M111.16,144.88a5.15,5.15,0,0,1-.5-.75A5.15,5.15,0,0,0,111.16,144.88Z"/><path id="_路徑_21" data-name="&lt;路徑&gt;" class="cls-1" d="M120.46,154.36l49.06,48.89a4.54,4.54,0,1,0,6.41-6.42L127.3,148.37l-2.6,2.89A13.2,13.2,0,0,1,120.46,154.36Z"/><path id="_路徑_22" data-name="&lt;路徑&gt;" class="cls-3" d="M175.83,74.7a13.34,13.34,0,0,0-18.84,1L104.9,133.39c-.24.26-.4.55-.61.82s-.56.71-.8,1.09-.41.77-.61,1.16-.39.78-.54,1.18a11.16,11.16,0,0,0-.37,1.25c-.11.41-.23.82-.3,1.24s-.09.84-.12,1.27-.07.85-.06,1.28.08.83.13,1.25a11,11,0,0,0,.19,1.28c.09.41.23.81.36,1.22s.26.82.43,1.22.4.78.62,1.17.41.75.66,1.11.57.72.87,1.07a15.87,15.87,0,0,0,1.11,1.22,13.45,13.45,0,0,0,18.84-1l2.6-2.89-6.24-6.21-2.89,3.2a4.22,4.22,0,0,1-7-.48,5.15,5.15,0,0,1-.5-.75,4.32,4.32,0,0,1-.21-.86,4.7,4.7,0,0,1-.17-.83,5.38,5.38,0,0,1,.13-.87,4.68,4.68,0,0,1,.16-.83A4.43,4.43,0,0,1,111,140a5.25,5.25,0,0,1,.4-.68l8.4-9.31,43.7-48.41a4.53,4.53,0,0,1,6.73,6.08l-43.3,48,6.24,6.21,43.59-48.29A13.33,13.33,0,0,0,175.83,74.7Z"/><path id="_路徑_23" data-name="&lt;路徑&gt;" class="cls-1" d="M110.66,144.13a4.16,4.16,0,0,1-.21-.86A4.32,4.32,0,0,0,110.66,144.13Z"/><path id="_路徑_24" data-name="&lt;路徑&gt;" class="cls-1" d="M110.28,142.44a5.23,5.23,0,0,1,.13-.87A5.38,5.38,0,0,0,110.28,142.44Z"/><path id="_路徑_25" data-name="&lt;路徑&gt;" class="cls-1" d="M110.57,140.74A4.43,4.43,0,0,1,111,140,4.43,4.43,0,0,0,110.57,140.74Z"/><path id="_路徑_26" data-name="&lt;路徑&gt;" class="cls-1" d="M114.8,146.86a4.54,4.54,0,0,0,3.37-1.5l2.89-3.2-3.06-3a4.52,4.52,0,0,0-6.41,0,6.34,6.34,0,0,0-.69,1,3.48,3.48,0,0,0-.48,1.2,5,5,0,0,0-.1,1.16,4.46,4.46,0,0,0,.33,1.53,4.85,4.85,0,0,0,.57,1A4.34,4.34,0,0,0,114.8,146.86Z"/><path id="_路徑_27" data-name="&lt;路徑&gt;" class="cls-2" d="M87.46,97.09V200a4.54,4.54,0,1,1-9.08,0V97.09a13.29,13.29,0,0,1-8.8-12.49V200a13.34,13.34,0,0,0,26.67,0V84.6A13.28,13.28,0,0,1,87.46,97.09Z"/><path id="_路徑_28" data-name="&lt;路徑&gt;" class="cls-1" d="M78.38,97.09V200a4.54,4.54,0,1,0,9.08,0V97.09a12.55,12.55,0,0,1-9.08,0Z"/><path id="_路徑_29" data-name="&lt;路徑&gt;" class="cls-3" d="M88.11,72.32a13.47,13.47,0,0,1,4.24,2.85A13.36,13.36,0,0,0,88.11,72.32Z"/><path id="_路徑_30" data-name="&lt;路徑&gt;" class="cls-3" d="M73.49,75.17a13.29,13.29,0,0,1,6.74-3.63A13.29,13.29,0,0,0,73.49,75.17Z"/><path id="_路徑_31" data-name="&lt;路徑&gt;" class="cls-3" d="M69.86,81.92a13.28,13.28,0,0,1,3.63-6.75A13.28,13.28,0,0,0,69.86,81.92Z"/><path id="_路徑_32" data-name="&lt;路徑&gt;" class="cls-3" d="M92.35,75.17a13.67,13.67,0,0,1,2.86,4.24A13.67,13.67,0,0,0,92.35,75.17Z"/><path id="_路徑_33" data-name="&lt;路徑&gt;" class="cls-3" d="M95.21,79.41a13.67,13.67,0,0,0-2.86-4.24,13.47,13.47,0,0,0-4.24-2.85A13.3,13.3,0,1,0,96.25,84.6,13.39,13.39,0,0,0,95.21,79.41Z"/><path id="_路徑_34" data-name="&lt;路徑&gt;" class="cls-1" d="M87.46,84.6a4.54,4.54,0,0,0-4.54-4.53A4.54,4.54,0,0,1,87.46,84.6Z"/><path id="_路徑_35" data-name="&lt;路徑&gt;" class="cls-1" d="M82.92,80.07a4.53,4.53,0,0,0-4.54,4.53A4.53,4.53,0,0,1,82.92,80.07Z"/><circle id="_路徑_36" data-name="&lt;路徑&gt;" class="cls-1" cx="82.92" cy="84.6" r="4.54"/></g><g id="_群組_2" data-name="&lt;群組&gt;"><path id="_複合路徑_" data-name="&lt;複合路徑&gt;" class="cls-4" d="M304.08,172.1l0-62.55c0-3.25.74-5.68,2.22-7.31A7.42,7.42,0,0,1,312,99.8a7.66,7.66,0,0,1,5.88,2.41c1.5,1.61,2.25,4.05,2.25,7.34l0,62.54c0,3.28-.74,5.74-2.24,7.36a7.61,7.61,0,0,1-5.87,2.44,7.42,7.42,0,0,1-5.72-2.46C304.83,177.79,304.08,175.34,304.08,172.1Z"/><path id="_複合路徑_2" data-name="&lt;複合路徑&gt;" class="cls-4" d="M354.3,109.53v27.83l31.56-32.94a28.29,28.29,0,0,1,3.87-3.52A7.16,7.16,0,0,1,394,99.76a7.82,7.82,0,0,1,5.6,2,6.54,6.54,0,0,1,2.14,4.95c0,2.35-1.2,4.68-3.62,7l-19.54,18.53,22.54,32.26a40.84,40.84,0,0,1,3.58,5.87,11.48,11.48,0,0,1,1.19,4.9,6.11,6.11,0,0,1-2.08,4.61,7.94,7.94,0,0,1-5.66,1.95,9.6,9.6,0,0,1-5.47-1.43,12.26,12.26,0,0,1-3.57-3.82c-1-1.59-1.84-3-2.6-4.33l-19-29.23-13.16,12.62v16.41c0,3.32-.75,5.79-2.27,7.39a8.09,8.09,0,0,1-9.8,1.33,7.52,7.52,0,0,1-2.92-2.92,9.45,9.45,0,0,1-.93-3.52c-.11-1.33-.16-3.26-.16-5.79l0-59q0-4.87,2.13-7.31a7.34,7.34,0,0,1,5.82-2.44,7.65,7.65,0,0,1,5.88,2.4C353.55,103.8,354.3,106.24,354.3,109.53Z"/><path id="_複合路徑_3" data-name="&lt;複合路徑&gt;" class="cls-4" d="M471,171.47l-3.79-10H435l-3.78,10.19a35.51,35.51,0,0,1-3.79,8c-1,1.39-2.76,2.08-5.14,2.09a7.54,7.54,0,0,1-5.36-2.22,6.78,6.78,0,0,1-2.33-5,11.2,11.2,0,0,1,.54-3.35q.54-1.74,1.78-4.82l20.28-51.56,2.08-5.34a27,27,0,0,1,2.6-5.17,10.64,10.64,0,0,1,3.62-3.33A11.11,11.11,0,0,1,451,99.73a11.25,11.25,0,0,1,5.61,1.27,10.74,10.74,0,0,1,3.63,3.28,22.83,22.83,0,0,1,2.33,4.3c.63,1.53,1.44,3.58,2.41,6.14l20.77,51.22c1.62,3.9,2.44,6.73,2.44,8.5a7,7,0,0,1-2.3,5.06,7.57,7.57,0,0,1-5.55,2.31,7.22,7.22,0,0,1-3.25-.68,6.57,6.57,0,0,1-2.27-1.84,16.44,16.44,0,0,1-2-3.57C472.13,174.11,471.53,172.7,471,171.47Zm-31.85-22,23.72,0-12-32.75Z"/><path id="_複合路徑_4" data-name="&lt;複合路徑&gt;" class="cls-4" d="M516.15,109.44v27.84l31.56-32.94a28.29,28.29,0,0,1,3.87-3.52,7.16,7.16,0,0,1,4.25-1.14,7.77,7.77,0,0,1,5.6,2,6.54,6.54,0,0,1,2.14,5c0,2.35-1.2,4.68-3.62,7l-19.54,18.53L563,164.44a40.3,40.3,0,0,1,3.58,5.87,11.48,11.48,0,0,1,1.19,4.9,6.09,6.09,0,0,1-2.08,4.6,8,8,0,0,1-5.66,2,9.52,9.52,0,0,1-5.47-1.44,12.11,12.11,0,0,1-3.57-3.81c-1-1.59-1.84-3-2.6-4.33l-19-29.23-13.16,12.62V172c0,3.32-.75,5.78-2.27,7.39a7.65,7.65,0,0,1-5.85,2.41,7.86,7.86,0,0,1-3.95-1.08,7.52,7.52,0,0,1-2.92-2.92,9.45,9.45,0,0,1-.93-3.52c-.11-1.34-.16-3.27-.16-5.79l0-59c0-3.25.71-5.68,2.13-7.31A7.38,7.38,0,0,1,508,99.7a7.66,7.66,0,0,1,5.88,2.41C515.4,103.71,516.15,106.16,516.15,109.44Z"/><path id="_複合路徑_5" data-name="&lt;複合路徑&gt;" class="cls-4" d="M582.18,147.59l0-38.18c0-3.25.72-5.68,2.19-7.31a7.36,7.36,0,0,1,5.76-2.44,7.59,7.59,0,0,1,5.93,2.43c1.47,1.63,2.2,4.06,2.2,7.31l0,39a35.72,35.72,0,0,0,1.49,11.13A12.86,12.86,0,0,0,605,166.5q3.78,2.46,10.61,2.46,9.42,0,13.32-5t3.89-15.19l0-39.36q0-4.94,2.16-7.34a7.45,7.45,0,0,1,5.79-2.42,7.7,7.7,0,0,1,5.88,2.41c1.5,1.61,2.25,4,2.25,7.34l0,38.17a56.49,56.49,0,0,1-1.8,15.54A23.93,23.93,0,0,1,640.29,174a26.54,26.54,0,0,1-10.07,5.86,44.22,44.22,0,0,1-13.42,1.85,55.61,55.61,0,0,1-15.76-2,25.24,25.24,0,0,1-10.78-6.12A24.73,24.73,0,0,1,584.13,163,53.89,53.89,0,0,1,582.18,147.59Z"/></g></g><g id="圖層_3" data-name="圖層 3"><g id="_群組_3" data-name="&lt;群組&gt;"><path id="_路徑_37" data-name="&lt;路徑&gt;" class="cls-1" d="M134.53,274.64c-5.45,3.15-14.36,3.15-19.8,0L11.8,215.22c-5.44-3.14-9.89-10.86-9.89-17.15V79.23c0-6.29,4.45-14,9.89-17.15L114.73,2.66c5.44-3.14,14.35-3.14,19.8,0L237.45,62.08c5.44,3.15,9.9,10.86,9.9,17.15V198.07c0,6.29-4.46,14-9.9,17.15Z"/><path id="_路徑_38" data-name="&lt;路徑&gt;" class="cls-2" d="M102.62,143.93c-.05-.42-.11-.83-.13-1.25C102.51,143.1,102.57,143.51,102.62,143.93Z"/><path id="_路徑_39" data-name="&lt;路徑&gt;" class="cls-2" d="M102.55,141.4c0-.43,0-.85.12-1.27C102.6,140.55,102.58,141,102.55,141.4Z"/><path id="_路徑_40" data-name="&lt;路徑&gt;" class="cls-2" d="M103.88,136.46c.2-.39.38-.78.61-1.16C104.26,135.68,104.08,136.07,103.88,136.46Z"/><path id="_路徑_41" data-name="&lt;路徑&gt;" class="cls-2" d="M103,138.89a11.16,11.16,0,0,1,.37-1.25A11.16,11.16,0,0,0,103,138.89Z"/><path id="_路徑_42" data-name="&lt;路徑&gt;" class="cls-2" d="M103.17,146.43c-.13-.41-.27-.81-.36-1.22C102.9,145.63,103,146,103.17,146.43Z"/><path id="_路徑_43" data-name="&lt;路徑&gt;" class="cls-2" d="M105.75,151c-.3-.35-.61-.7-.87-1.07C105.14,150.3,105.45,150.64,105.75,151Z"/><path id="_路徑_44" data-name="&lt;路徑&gt;" class="cls-2" d="M104.22,148.82c-.22-.39-.44-.77-.62-1.17C103.78,148.05,104,148.43,104.22,148.82Z"/><path id="_路徑_45" data-name="&lt;路徑&gt;" class="cls-2" d="M102.67,140.13c.07-.42.19-.83.3-1.24C102.86,139.3,102.74,139.71,102.67,140.13Z"/><path id="_路徑_46" data-name="&lt;路徑&gt;" class="cls-2" d="M104.88,149.93c-.25-.36-.45-.74-.66-1.11C104.43,149.19,104.63,149.57,104.88,149.93Z"/><path id="_路徑_47" data-name="&lt;路徑&gt;" class="cls-2" d="M103.34,137.64c.15-.4.35-.79.54-1.18C103.69,136.85,103.49,137.24,103.34,137.64Z"/><path id="_路徑_48" data-name="&lt;路徑&gt;" class="cls-2" d="M102.81,145.21a11,11,0,0,1-.19-1.28A11,11,0,0,0,102.81,145.21Z"/><path id="_路徑_49" data-name="&lt;路徑&gt;" class="cls-2" d="M104.49,135.3c.24-.38.52-.73.8-1.09C105,134.57,104.73,134.92,104.49,135.3Z"/><path id="_路徑_50" data-name="&lt;路徑&gt;" class="cls-2" d="M103.6,147.65c-.17-.4-.3-.81-.43-1.22C103.3,146.84,103.43,147.25,103.6,147.65Z"/><path id="_路徑_51" data-name="&lt;路徑&gt;" class="cls-2" d="M102.49,142.68c0-.43,0-.85.06-1.28C102.52,141.83,102.48,142.25,102.49,142.68Z"/><path id="_路徑_52" data-name="&lt;路徑&gt;" class="cls-1" d="M128,135.62l43.3-48a4.53,4.53,0,0,0-6.73-6.08L120.83,130a13.28,13.28,0,0,1,4.38,2.9Z"/><path id="_路徑_53" data-name="&lt;路徑&gt;" class="cls-2" d="M183.14,190.59,134.2,141.83,128,135.62l-2.75-2.75a13.28,13.28,0,0,0-4.38-2.9l-8.4,9.31a5.25,5.25,0,0,0-.4.68,4.22,4.22,0,0,1,7-.85l3.06,3,6.24,6.21,48.63,48.46a4.54,4.54,0,1,1-6.41,6.42l-49.06-48.89a13.2,13.2,0,0,1-14.6-2.14,15.87,15.87,0,0,1-1.11-1.22c.22.25.4.53.64.77l57.92,57.72a13.34,13.34,0,0,0,18.83-18.9Z"/><path id="_路徑_54" data-name="&lt;路徑&gt;" class="cls-1" d="M111.45,143.27a4.89,4.89,0,0,1-.17-.83A4.7,4.7,0,0,0,111.45,143.27Z"/><path id="_路徑_55" data-name="&lt;路徑&gt;" class="cls-1" d="M111.41,141.57a4.68,4.68,0,0,1,.16-.83A4.68,4.68,0,0,0,111.41,141.57Z"/><path id="_路徑_56" data-name="&lt;路徑&gt;" class="cls-1" d="M112.16,144.88a5.15,5.15,0,0,1-.5-.75A5.15,5.15,0,0,0,112.16,144.88Z"/><path id="_路徑_57" data-name="&lt;路徑&gt;" class="cls-1" d="M121.46,154.36l49.06,48.89a4.54,4.54,0,1,0,6.41-6.42L128.3,148.37l-2.6,2.89A13.2,13.2,0,0,1,121.46,154.36Z"/><path id="_路徑_58" data-name="&lt;路徑&gt;" class="cls-3" d="M176.83,74.7a13.34,13.34,0,0,0-18.84,1L105.9,133.39c-.24.26-.4.55-.61.82s-.56.71-.8,1.09-.41.77-.61,1.16-.39.78-.54,1.18a11.16,11.16,0,0,0-.37,1.25c-.11.41-.23.82-.3,1.24s-.09.84-.12,1.27-.07.85-.06,1.28.08.83.13,1.25a11,11,0,0,0,.19,1.28c.09.41.23.81.36,1.22s.26.82.43,1.22.4.78.62,1.17.41.75.66,1.11.57.72.87,1.07a15.87,15.87,0,0,0,1.11,1.22,13.45,13.45,0,0,0,18.84-1l2.6-2.89-6.24-6.21-2.89,3.2a4.22,4.22,0,0,1-7-.48,5.15,5.15,0,0,1-.5-.75,4.32,4.32,0,0,1-.21-.86,4.7,4.7,0,0,1-.17-.83,5.38,5.38,0,0,1,.13-.87,4.68,4.68,0,0,1,.16-.83A4.43,4.43,0,0,1,112,140a5.25,5.25,0,0,1,.4-.68l8.4-9.31,43.7-48.41a4.53,4.53,0,0,1,6.73,6.08l-43.3,48,6.24,6.21,43.59-48.29A13.33,13.33,0,0,0,176.83,74.7Z"/><path id="_路徑_59" data-name="&lt;路徑&gt;" class="cls-1" d="M111.66,144.13a4.16,4.16,0,0,1-.21-.86A4.32,4.32,0,0,0,111.66,144.13Z"/><path id="_路徑_60" data-name="&lt;路徑&gt;" class="cls-1" d="M111.28,142.44a5.23,5.23,0,0,1,.13-.87A5.38,5.38,0,0,0,111.28,142.44Z"/><path id="_路徑_61" data-name="&lt;路徑&gt;" class="cls-1" d="M111.57,140.74A4.43,4.43,0,0,1,112,140,4.43,4.43,0,0,0,111.57,140.74Z"/><path id="_路徑_62" data-name="&lt;路徑&gt;" class="cls-1" d="M115.8,146.86a4.54,4.54,0,0,0,3.37-1.5l2.89-3.2-3.06-3a4.52,4.52,0,0,0-6.41,0,6.34,6.34,0,0,0-.69,1,3.48,3.48,0,0,0-.48,1.2,5,5,0,0,0-.1,1.16,4.46,4.46,0,0,0,.33,1.53,4.85,4.85,0,0,0,.57,1A4.34,4.34,0,0,0,115.8,146.86Z"/><path id="_路徑_63" data-name="&lt;路徑&gt;" class="cls-2" d="M88.46,97.09V200a4.54,4.54,0,1,1-9.08,0V97.09a13.29,13.29,0,0,1-8.8-12.49V200a13.34,13.34,0,0,0,26.67,0V84.6A13.28,13.28,0,0,1,88.46,97.09Z"/><path id="_路徑_64" data-name="&lt;路徑&gt;" class="cls-1" d="M79.38,97.09V200a4.54,4.54,0,1,0,9.08,0V97.09a12.55,12.55,0,0,1-9.08,0Z"/><path id="_路徑_65" data-name="&lt;路徑&gt;" class="cls-3" d="M89.11,72.32a13.47,13.47,0,0,1,4.24,2.85A13.36,13.36,0,0,0,89.11,72.32Z"/><path id="_路徑_66" data-name="&lt;路徑&gt;" class="cls-3" d="M74.49,75.17a13.29,13.29,0,0,1,6.74-3.63A13.29,13.29,0,0,0,74.49,75.17Z"/><path id="_路徑_67" data-name="&lt;路徑&gt;" class="cls-3" d="M70.86,81.92a13.28,13.28,0,0,1,3.63-6.75A13.28,13.28,0,0,0,70.86,81.92Z"/><path id="_路徑_68" data-name="&lt;路徑&gt;" class="cls-3" d="M93.35,75.17a13.67,13.67,0,0,1,2.86,4.24A13.67,13.67,0,0,0,93.35,75.17Z"/><path id="_路徑_69" data-name="&lt;路徑&gt;" class="cls-3" d="M96.21,79.41a13.67,13.67,0,0,0-2.86-4.24,13.47,13.47,0,0,0-4.24-2.85A13.3,13.3,0,1,0,97.25,84.6,13.39,13.39,0,0,0,96.21,79.41Z"/><path id="_路徑_70" data-name="&lt;路徑&gt;" class="cls-1" d="M88.46,84.6a4.54,4.54,0,0,0-4.54-4.53A4.54,4.54,0,0,1,88.46,84.6Z"/><path id="_路徑_71" data-name="&lt;路徑&gt;" class="cls-1" d="M83.92,80.07a4.53,4.53,0,0,0-4.54,4.53A4.53,4.53,0,0,1,83.92,80.07Z"/><circle id="_路徑_72" data-name="&lt;路徑&gt;" class="cls-1" cx="83.92" cy="84.6" r="4.54"/></g></g></svg>